<svg width="1140" height="474" viewBox="0 0 1140 474" xmlns="http://www.w3.org/2000/svg" xml:space="preserve" version="1.0">

 <g transform="translate(10,128.4285714286)">
  <g transform="scale(5.7142857143)">
  <title>Layer 1</title>
  <path id="svg_1" fill="#AB0334" d="m11.63769,32.8c-0.3,-1.5 -0.2,-3 0.4,-4.3l-7.7,-7.8c-1.1,-1.1 -1,-2.9 0.1,-4c1.1,-1.1 2.9,-1.1 4,0l2,2l-3,3l2.4,2.4l8.2,-8.4l-2.4,-2.4l-3,3l-2,-1.9l0,0c-2.4,-2.4 -6.3,-2.4 -8.8,0s-2.4,6.3 0,8.8c0.1,0 9.8,9.6 9.8,9.6m21.4,-6.8c-1.5,0.3 -3,0.2 -4.3,-0.4l-7.7,7.7c-1.1,1.1 -2.9,1.1 -4,-0.1c0,0 0,0 0,0c-1.1,-1.1 -1.1,-2.9 0,-4l2,-2l3,3l2.4,-2.4l-8.5,-8.3l-2.4,2.5l3,3l-2,1.9l0,0c-2.4,2.4 -2.4,6.4 0,8.8c2.4,2.4 6.4,2.4 8.8,0l0,0c0,0.1 9.7,-9.7 9.7,-9.7m-6.9,-21.2c0.3,1.5 0.2,3 -0.4,4.3l7.8,7.8c1.1,1.1 1.1,2.9 -0.1,4c-1.1,1.1 -2.9,1.1 -4,0l-2,-2l3,-3l-2.3,-2.4l-8.3,8.4l2.4,2.4l3,-3l1.9,2l0,0c2.5,2.4 6.4,2.3 8.8,-0.2c2.3,-2.4 2.3,-6.2 0,-8.6c-0.1,0 -9.8,-9.8 -9.8,-9.7m-21.3,6.8c1.5,-0.3 3,-0.2 4.4,0.4l7.7,-7.8c1.1,-1.1 2.9,-1.1 4,0.1c1.1,1.1 1.1,2.9 0,4l-2,2l-3,-3l-2.3,2.3l8.4,8.4l2.4,-2.4l-3,-3l2,-2l0,0c2.4,-2.4 2.4,-6.4 0,-8.8s-6.4,-2.4 -8.8,0c0,0 -9.8,9.7 -9.8,9.8" class="st0"/>
  <path id="svg_2" fill="#716F73" d="m48.03769,30.7l0.7,0.5c0.1,0 0.2,0.1 0.1,0.2c0,0.1 -0.1,0.1 -0.1,0.2l-0.3,0.2l0,2.2l0.1,0.9c0,0.1 -0.1,0.2 -0.2,0.2s-0.2,0.1 -0.4,0.1c-0.3,0 -0.4,-0.1 -0.4,-0.2l0,-0.4l-4,0l0,0.3c0,0.2 -0.1,0.2 -0.2,0.2s-0.2,0.1 -0.4,0.1s-0.2,-0.1 -0.3,-0.3l0.1,-1.1l0,-2.5c0,-0.3 0,-0.5 -0.1,-0.8l0.9,0.4l4,0l0.5,-0.2zm-4.5,3.6l4.1,0l0,-1.3l-4.1,0l0,1.3zm0,-1.5l4.1,0l0,-1.3l-4.1,0l0,1.3zm4.4,-7l0.8,0.5c0.1,0 0.1,0.1 0.1,0.2s-0.1,0.1 -0.2,0.2l-0.3,-0.1c-0.7,0.1 -1.5,0.2 -2.4,0.3l0,1l2.9,0l0.6,-0.7l0.8,0.6c0.1,0.1 0.2,0.2 0.2,0.2s-0.1,0.2 -0.2,0.2l-3.9,0c0.3,0.3 0.7,0.5 1,0.8c0.4,0.2 0.9,0.4 1.3,0.6c0.6,0.2 1.2,0.3 1.8,0.4l0.1,0.3l-0.4,0c-0.1,0 -0.2,0.2 -0.4,0.6c-0.5,-0.2 -1,-0.4 -1.5,-0.8c-0.5,-0.3 -1,-0.7 -1.4,-1.1c-0.3,-0.3 -0.6,-0.6 -0.8,-0.9l0,0l0,2.2c0,0.1 -0.1,0.2 -0.2,0.3c-0.1,0.1 -0.2,0.1 -0.4,0.1c-0.2,0 -0.3,-0.1 -0.3,-0.3l0.1,-1l0,-0.8c-0.2,0.3 -0.4,0.6 -0.8,0.8c-0.6,0.4 -1.2,0.8 -1.8,1.1c-0.6,0.3 -1.2,0.6 -1.8,0.8l-0.1,-0.3c0.5,-0.3 1.1,-0.6 1.6,-0.9c0.5,-0.3 0.9,-0.6 1.3,-1.1c0.3,-0.3 0.6,-0.6 0.8,-1l-2.3,0c-0.4,0 -0.7,0 -1.1,0.1l-0.2,-0.5c0.4,0.1 0.9,0.1 1.3,0.1l3,0l0,-1c-0.8,0.1 -1.9,0.2 -3.3,0.2l-0.2,-0.2c1.4,-0.2 2.5,-0.3 3.2,-0.4c1.1,0.1 2.2,-0.1 3.1,-0.5" class="st1"/>
  <path id="svg_3" fill="#716F73" d="m56.33769,25.9l1,0.2c0.1,0 0.3,0.1 0.3,0.2s-0.2,0.2 -0.4,0.3l0,0.9l1.5,0l0,-0.8c0,-0.2 0,-0.4 -0.1,-0.6l1,0.2c0.2,0 0.3,0.1 0.3,0.2s-0.2,0.2 -0.4,0.3l0,0.8l0.6,0l0.6,-0.7l0.8,0.6c0.1,0.1 0.2,0.2 0.2,0.2s-0.1,0.2 -0.2,0.2l-1.9,0l0,1.7l1,0l0.6,-0.7l0.8,0.6c0.1,0.1 0.2,0.2 0.2,0.2s-0.1,0.2 -0.2,0.2l-2.6,0c0.2,0.2 0.5,0.4 0.8,0.5c0.3,0.2 0.6,0.3 1,0.4c0.4,0.2 0.8,0.2 1.3,0.4l-0.1,0.2l-0.4,0c-0.1,0 -0.2,0.2 -0.4,0.6c-0.4,-0.2 -0.7,-0.4 -1,-0.6c-0.3,-0.3 -0.6,-0.6 -0.9,-0.9c-0.2,-0.2 -0.4,-0.5 -0.5,-0.8l-1.4,0c-0.2,0.4 -0.4,0.8 -0.8,1.1l-0.1,0.1l0.2,0.1l2,0l0.4,-0.4l0.6,0.5c0.1,0.1 0.2,0.2 0.2,0.2s-0.1,0.1 -0.2,0.2l-0.3,0.1l0,0.7l0.1,0.9c0,0.1 -0.1,0.2 -0.2,0.2s-0.2,0.1 -0.3,0.1c-0.1,0 -0.4,-0.1 -0.4,-0.2l0,-0.3l-1.9,0l0,0.8c0,0.2 0.1,0.4 0.4,0.4c0.5,0.1 1.1,0.1 1.7,0.1c0.5,0 1,0 1.4,-0.1c0.2,0 0.3,-0.1 0.4,-0.2l0.4,-1.2l0.2,0l-0.1,1c0,0.1 0.1,0.2 0.2,0.3c0.2,0.2 0.2,0.2 0.2,0.4s-0.1,0.2 -0.2,0.3c-0.2,0.1 -0.4,0.2 -0.7,0.2c-0.7,0 -1.3,0.1 -1.9,0c-0.7,0 -1.3,0 -1.9,-0.2c-0.3,0 -0.5,-0.1 -0.8,-0.3c-0.2,-0.2 -0.2,-0.4 -0.2,-0.7l0,-2.5c-0.1,0.1 -0.2,0.2 -0.4,0.3c-0.5,0.4 -1,0.7 -1.6,0.9l-0.2,-0.2c0.3,-0.2 0.6,-0.4 0.9,-0.7c0.3,-0.2 0.5,-0.5 0.8,-0.8c0.3,-0.4 0.5,-0.8 0.8,-1.3l-1.8,0l-0.8,2.7c-0.1,0.1 -0.1,0.3 -0.1,0.4c0,0.3 0.1,0.5 0.2,0.8c0.1,0.2 0.2,0.5 0.2,0.8c0,0.2 -0.1,0.4 -0.2,0.6c-0.1,0.1 -0.2,0.2 -0.4,0.2c-0.1,0 -0.3,-0.1 -0.4,-0.2c-0.1,-0.2 -0.2,-0.4 -0.2,-0.6l0,-0.2c0,-0.2 0.1,-0.3 0.1,-0.4c0,-0.2 -0.1,-0.4 -0.2,-0.6c-0.1,-0.2 -0.3,-0.2 -0.6,-0.3l0,-0.3c0.1,0.1 0.2,0.1 0.4,0.2c0.2,0 0.2,-0.2 0.4,-0.4l1.9,-4.3l0.2,0.2l-0.4,1.3l1.7,0l0,-1.7c-0.4,0 -0.7,0 -1.1,0.1l-0.2,-0.5c0.4,0.1 0.8,0.1 1.3,0.2l0,-0.7c-0.1,-0.4 -0.2,-0.6 -0.2,-0.9m0.6,6.7l2,0l0,-1.3l-2,0l0,1.3zm0.2,-3.1l1.5,0l0,-1.7l-1.5,0l0,1.7zm-4.7,-0.9c0.4,0.1 0.8,0.3 1.1,0.6c0.2,0.2 0.4,0.3 0.4,0.4c0,0.2 -0.1,0.4 -0.3,0.4c0,0 -0.1,0 -0.1,0c-0.2,0 -0.3,-0.1 -0.4,-0.3c-0.2,-0.4 -0.5,-0.7 -0.9,-1l0.2,-0.1zm0.6,-2.5c0.5,0.2 0.9,0.4 1.2,0.6c0.3,0.2 0.4,0.3 0.4,0.5s-0.2,0.4 -0.5,0.4c-0.2,0 -0.3,-0.1 -0.4,-0.3c-0.2,-0.4 -0.5,-0.8 -0.9,-1.1l0.2,-0.1z" class="st1"/>
  <path id="svg_4" fill="#716F73" d="m67.63769,26.2l0.8,0.4l3.7,0l0.4,-0.4l0.6,0.5l0.2,0.2c0,0.1 -0.1,0.1 -0.2,0.2l-0.3,0.1l0,3.2l0.1,0.8c0,0.1 -0.1,0.2 -0.2,0.2s-0.2,0.1 -0.3,0.1s-0.3,-0.2 -0.3,-0.4l0,-0.3l-1.5,0l0,1.6l1,0l0.6,-0.7l0.8,0.6c0.1,0.1 0.2,0.2 0.2,0.2s-0.1,0.2 -0.2,0.2l-2.4,0l0,1.9l1.5,0l0.7,-0.7l0.8,0.6c0.1,0.1 0.2,0.2 0.2,0.2s-0.1,0.2 -0.2,0.2l-5.8,0c-0.4,0 -0.8,0 -1.1,0.1l-0.2,-0.5c0.4,0.1 0.9,0.1 1.3,0.2l2,0l0,-1.8l-1,0c-0.4,0 -0.7,0 -1.1,0.1l0,-0.4c0.4,0.1 0.9,0.1 1.3,0.2l1,0l0,-1.8l-1.4,0l0,0.2c0,0.1 -0.1,0.2 -0.2,0.3c-0.1,0.1 -0.2,0.1 -0.4,0.1c-0.2,0 -0.2,-0.1 -0.3,-0.3l0.1,-1l0,-3.3c-0.1,-0.5 -0.1,-0.7 -0.2,-0.8m0.8,4.4l1.4,0l0,-1.7l-1.4,0l0,1.7zm2.3,0l1.5,0l0,-1.7l-1.5,0l0,1.7zm-2.3,-2l1.4,0l0,-1.9l-1.4,0l0,1.9zm2.3,0l1.5,0l0,-1.9l-1.5,0l0,1.9zm-4,-2.2l0.8,0.5c0.1,0.1 0.1,0.1 0.1,0.2c0,0.1 -0.1,0.2 -0.2,0.2l-1.2,0l0,2.4l-0.1,0l0.5,-0.6l0.7,0.5c0,0 0.1,0.1 0.1,0.2c0,0.1 -0.1,0.1 -0.2,0.2l-1.2,0l0,2.2c0.5,-0.1 0.9,-0.2 1.4,-0.4l0.1,0.2c-0.9,0.5 -1.8,1.1 -2.8,1.5l-0.1,0.4c0,0.1 -0.1,0.1 -0.2,0.2c-0.1,0 -0.1,-0.1 -0.2,-0.2l-0.3,-1.1c0.5,-0.1 0.9,-0.2 1.3,-0.4l0,-2.5c-0.3,0 -0.7,0 -1,0.1l-0.1,-0.6c0.4,0.1 0.8,0.1 1.3,0.2l0,-2.4c-0.4,0 -0.7,0 -1.1,0.1l-0.3,-0.5c0.4,0.1 0.9,0.1 1.3,0.2l0.8,0l0.6,-0.6z" class="st1"/>
  <path id="svg_5" fill="#716F73" d="m83.63769,26.6l0.9,0.7c0.1,0.1 0.2,0.2 0.2,0.2s-0.1,0.2 -0.2,0.2l-3.5,0l0,6.4l2.8,0l0.6,-0.8l0.9,0.7c0.1,0.1 0.2,0.2 0.2,0.2s-0.1,0.2 -0.2,0.2l-8,0c-0.4,0 -0.9,0.1 -1.3,0.2l-0.4,-0.6c0.5,0.1 1,0.1 1.5,0.2l2.8,0l0,-6.4l-2,0c-0.4,0 -0.9,0.1 -1.3,0.2l-0.2,-0.6c0.5,0.1 1,0.1 1.5,0.2l5,0l0.7,-1z" class="st1"/>
  <path id="svg_6" fill="#716F73" d="m91.13769,25.9l1.1,0.2c0.2,0 0.2,0.1 0.2,0.2s-0.2,0.2 -0.4,0.3c0,0.7 0,1.5 -0.2,2.2l2.8,0l0.7,-0.8l0.9,0.7c0.1,0.1 0.2,0.2 0.2,0.2s-0.1,0.1 -0.3,0.1l-4.1,0c0.3,0.8 0.7,1.5 1.1,2.2c0.4,0.7 1,1.3 1.6,1.8c0.6,0.5 1.2,0.9 1.9,1.1l-0.2,0.3c-0.2,0 -0.3,0 -0.4,0.1c-0.2,0 -0.3,0.2 -0.5,0.5c-0.6,-0.4 -1.1,-0.8 -1.6,-1.3c-0.6,-0.6 -1,-1.3 -1.3,-2.1c-0.4,-0.8 -0.6,-1.6 -0.8,-2.4c0,0.1 0,0.2 -0.1,0.3c-0.1,0.6 -0.3,1.3 -0.6,1.9c-0.2,0.5 -0.5,1 -0.9,1.4c-0.4,0.5 -0.9,0.9 -1.4,1.3c-0.4,0.3 -1,0.7 -1.7,1l-0.2,-0.2c0.6,-0.4 1.2,-0.8 1.7,-1.3c0.5,-0.5 1,-1 1.4,-1.7c0.4,-0.7 0.7,-1.4 0.9,-2.2c0.1,-0.3 0.1,-0.6 0.2,-0.9l-2.6,0c-0.4,0 -0.8,0 -1.1,0.1l-0.2,-0.5c0.4,0.1 0.9,0.1 1.3,0.2l2.7,0c0.1,-0.6 0.1,-1.2 0.1,-1.7c-0.2,-0.4 -0.2,-0.8 -0.2,-1" class="st1"/>
  <path id="svg_7" fill="#716F73" d="m105.33769,30.8l0.7,0.7c0.1,0.1 0.2,0.2 0.2,0.2c0,0.1 -0.1,0.1 -0.2,0.2l-0.4,0c-0.6,0.3 -1.1,0.5 -1.7,0.7l0,0.1c0,0.1 -0.1,0.1 -0.2,0.2l0,0.2l2.6,0l0.6,-0.7l0.8,0.6c0.1,0.1 0.2,0.2 0.2,0.2s-0.1,0.2 -0.2,0.2l-3.9,0l0,1.1c0,0.4 -0.2,0.7 -0.5,0.8c-0.3,0.1 -0.5,0.2 -0.8,0.2c0,-0.2 0,-0.4 -0.1,-0.6c-0.1,-0.2 -0.4,-0.3 -1,-0.4l0,-0.5l1.3,0.3c0.1,0 0.2,-0.1 0.2,-0.2c0,0 0,0 0,0l0,-0.9l-2.8,0c-0.4,0 -0.8,0 -1.1,0.1l-0.2,-0.5c0.4,0.1 0.9,0.1 1.3,0.2l2.8,0c0,-0.3 0,-0.6 -0.1,-0.8l0.7,0.2c0.4,-0.3 0.8,-0.5 1.1,-0.8l-3.1,0c-0.4,0 -0.8,0 -1.1,0.1l-0.3,-0.7c0.4,0.1 0.9,0.1 1.3,0.2l3.3,0l0.6,-0.4zm-4.1,-5l0.7,0.6c0,0 0.1,0.1 0.1,0.2c0,0.1 -0.1,0.2 -0.2,0.2l0,0l-0.4,-0.2c-0.5,0.1 -0.9,0.2 -1.3,0.2l0.1,0.8l0.6,0l0.4,-0.4l0.6,0.4c0.1,0.1 0.1,0.1 0.1,0.2s-0.1,0.1 -0.2,0.1l-1.5,0l0.1,0.9l0.6,0l0.4,-0.4l0.6,0.4c0.1,0.1 0.1,0.1 0.1,0.2c0,0.1 -0.1,0.2 -0.2,0.2l0,0l-1.6,0l0.1,0.9l5.6,0l0.1,-0.9l-0.1,0c-0.4,0 -0.8,0 -1.1,0.1l-0.2,-0.5c0.4,0.1 0.9,0.1 1.3,0.2l0.2,0l0.1,-0.9l-0.2,0c-0.4,0 -0.7,0 -1.1,0.1l-0.2,-0.5c0.4,0.1 0.9,0.1 1.3,0.2l0.2,0l0.1,-0.9l-0.2,0c-0.4,0 -0.7,0 -1.1,0.1l-0.2,-0.5c0.4,0.1 0.9,0.1 1.3,0.2l0.2,0l0,-0.1l0.4,-0.4l0.5,0.5c0.1,0.1 0.2,0.2 0.2,0.2s0,0.2 -0.1,0.2l-0.2,0.2l-0.3,3l0.2,0l0.4,-0.2l0.7,0.5c0.1,0.1 0.2,0.1 0.2,0.2s-0.1,0.1 -0.2,0.2l-0.2,0.1c-0.3,0.3 -0.6,0.6 -1,0.9l-0.2,-0.2c0.2,-0.3 0.3,-0.6 0.4,-1l-7.5,0c0,0.2 -0.1,0.4 -0.1,0.6c-0.1,0.2 -0.2,0.4 -0.3,0.5c-0.1,0.1 -0.2,0.1 -0.3,0.2c-0.2,0 -0.4,-0.1 -0.4,-0.3c0,0 0,-0.1 0,-0.1c0,-0.1 0.1,-0.2 0.2,-0.3s0.2,-0.3 0.4,-0.4c0.2,-0.3 0.3,-0.6 0.3,-0.9l0.2,0.1c0,0.2 0,0.3 0.1,0.4l0.3,0l-0.2,-3c0,-0.3 -0.1,-0.6 -0.2,-0.9l0.8,0.4c0.1,-0.9 0.4,-1.1 0.8,-1.4m2.4,2.2l0.8,0.3c0.1,0 0.2,0.1 0.2,0.2l0,0c0,0.1 -0.2,0.2 -0.4,0.2l-0.2,0.2c0.1,0 0.1,0.1 0.2,0.1c0.2,0.1 0.4,0.3 0.5,0.5c0,0.2 0,0.2 -0.1,0.2c-0.1,0.1 -0.2,0.1 -0.3,0.2c-0.2,0 -0.2,-0.1 -0.4,-0.3c-0.1,-0.1 -0.2,-0.2 -0.4,-0.3c-0.2,0.1 -0.4,0.2 -0.5,0.3c-0.3,0.1 -0.7,0.2 -1,0.3l-0.1,-0.2c0.2,-0.1 0.3,-0.1 0.4,-0.2c0.2,-0.1 0.4,-0.2 0.5,-0.4c0.1,-0.1 0.2,-0.2 0.2,-0.2c-0.3,-0.2 -0.5,-0.4 -0.8,-0.5l0.2,-0.2c0.4,0.2 0.7,0.2 0.9,0.3c0.2,-0.1 0.3,-0.3 0.3,-0.5m0.1,-2l0.8,0.3c0.1,0 0.2,0.1 0.2,0.2l0,0c0,0.1 -0.2,0.2 -0.4,0.2c-0.1,0.1 -0.2,0.2 -0.3,0.3l0,0c0.3,0.2 0.5,0.4 0.5,0.5c0,0.1 0,0.2 -0.1,0.2c-0.1,0.1 -0.1,0.1 -0.2,0.1c-0.1,0 -0.3,-0.1 -0.4,-0.2l-0.2,-0.2c-0.1,0.1 -0.2,0.2 -0.4,0.2c-0.3,0.2 -0.7,0.3 -1,0.4l-0.1,-0.2c0.1,-0.1 0.3,-0.1 0.4,-0.2c0.2,-0.1 0.3,-0.2 0.4,-0.4l0.2,-0.2c-0.3,-0.3 -0.6,-0.5 -0.9,-0.7l0.2,-0.2c0.4,0.1 0.7,0.3 1,0.4c0.1,0 0.1,-0.2 0.3,-0.5" class="st1"/>
  <path id="svg_8" fill="#716F73" d="m49.03769,4.2l-0.4,0c-0.1,-0.7 0,-1.1 -1,-1.1l-2,0l0,6.8c0,0.8 0.5,0.9 1.2,0.9l0,0.3l-3.8,0l0,-0.3c0.7,0 1.2,0 1.2,-0.9l0,-6.8l-1.8,0c-1.2,0 -1.3,0.3 -1.5,1.1l-0.4,0l0.2,-2l0.3,0c0.2,0.3 0.5,0.4 0.8,0.4l6,0c0.4,0 0.8,-0.1 0.8,-0.4l0.3,0l0,2l0.1,0z" class="st1"/>
  <path id="svg_9" fill="#716F73" d="m56.63769,7.2l0,-2.2c0,-0.8 -0.5,-0.8 -1,-0.8l0,-0.2l3.1,0l0,0.3c-0.6,0 -1,0 -1,0.8l0,5.1c0,0.8 0.5,0.8 1,0.8l0,0.3l-3.1,0l0,-0.3c0.6,0 1,0 1,-0.8l0,-2.5l-4.5,0l0,2.5c0,0.8 0.4,0.8 1,0.8l0,0.3l-3,0l0,-0.3c0.6,0 1,0 1,-0.8l0,-5.2c0,-0.8 -0.5,-0.8 -1,-0.8l0,-0.2l3,0l0,0.3c-0.6,0 -1,0 -1,0.8l0,2.2l4.5,-0.1l0,0z" class="st1"/>
  <path id="svg_10" fill="#716F73" d="m61.63769,7.2l1.4,0c0.4,0.1 0.8,-0.2 0.9,-0.7c0,-0.1 0,-0.2 0,-0.2l0.2,0c0,0.2 -0.1,0.8 -0.1,1.1s0.1,0.8 0.1,1.1l-0.2,0c0,-1 -0.4,-1 -1.2,-1l-1.2,0l0,1.8c0,1.1 0.1,1.4 1.1,1.4l0.7,0c1.1,-0.1 1.6,-0.2 2,-1.3l0.3,0.1c-0.2,0.5 -0.3,1 -0.4,1.6l-5.8,0l0,-0.3c1,0 1,-0.2 1,-1.1l0,-4.5c0,-0.8 -0.2,-0.9 -1,-0.9l0,-0.3l5.4,0l0,1.5l-0.2,0.1c-0.2,-1 -0.7,-1.3 -1.7,-1.3l-1.3,0l0,2.9z" class="st1"/>
  <path id="svg_11" fill="#716F73" d="m76.83769,6.4l0,-2.7c0,-0.8 -0.5,-0.9 -1.2,-0.9l0,-0.3l3.7,0l0,0.3c-0.7,0 -1.2,0 -1.2,0.9l0,6.2c0,0.8 0.5,0.9 1.2,0.9l0,0.3l-3.8,0l0,-0.3c0.7,0 1.2,0 1.2,-0.9l0,-3l-5.3,0l0,3c0,0.8 0.5,0.9 1.2,0.9l0,0.3l-3.7,0l0,-0.3c0.7,0 1.2,0 1.2,-0.9l0,-6.2c0,-0.8 -0.5,-0.9 -1.2,-0.9l0,-0.3l3.7,0l0,0.3c-0.7,0 -1.2,0 -1.2,0.9l0,2.7l5.4,0z" class="st1"/>
  <path id="svg_12" fill="#716F73" d="m83.93769,3.8c2.1,0 3.8,1.6 3.9,3.7c-0.1,2.2 -2,3.8 -4.2,3.7c-2,-0.1 -3.5,-1.7 -3.7,-3.6c0,-2.1 1.8,-3.8 3.9,-3.8c0,0 0,0 0.1,0m0.1,7.1c1.6,0 2.6,-1.3 2.6,-3.2c0,-1.6 -1,-3.7 -2.8,-3.7c-1.6,0 -2.6,1.3 -2.6,3.2c-0.1,1.6 0.9,3.7 2.8,3.7" class="st1"/>
  <path id="svg_13" fill="#716F73" d="m95.73769,11.2l-0.2,0l-5.8,-5.8l0,3.8c0,1.4 0.2,1.7 1.3,1.7l0,0.3l-3,0l0,-0.4c0.7,0 1.2,0 1.2,-1.3l0,-4.1c0,-0.9 -0.4,-1.2 -1.3,-1.2l0,-0.2l1.9,0c0.4,0.6 1.5,1.6 2.7,2.8c0.9,1 2,2 2.7,2.7l0,-4c0,-1 -0.2,-1.2 -1.3,-1.2l0,-0.3l2.8,0l0,0.3c-0.7,0 -1.1,0.1 -1.1,1l0,5.9l0.1,0z" class="st1"/>
  <path id="svg_14" fill="#716F73" d="m104.23769,5.8l-0.2,0c-0.3,-1.2 -1.3,-1.7 -2.6,-1.7c-1.7,0 -3.1,1.4 -3.1,3.1c0,0.1 0,0.1 0,0.2c-0.1,1.8 1.3,3.4 3.1,3.5c0,0 0.1,0 0.1,0c0.5,0 1,-0.1 1.5,-0.4l0,-1.5c0,-0.8 -0.4,-0.8 -1,-0.8l0,-0.2l2.8,0l0,0.3c-0.4,0 -0.8,0 -0.8,0.8l0,1.3l0.2,0.2l0,0.2c-0.9,0.4 -1.9,0.6 -2.8,0.6c-2,0.3 -3.9,-1.2 -4.2,-3.2c-0.3,-2 1.2,-3.9 3.2,-4.2c0.3,0 0.6,0 0.9,0c1,0 1.9,0.2 2.8,0.5l0.1,1.3z" class="st1"/>
  <path id="svg_15" fill="#716F73" d="m107.83769,10.8c0.7,0 1.2,0 1.2,-0.9l0,-6.2c0,-0.8 -0.5,-0.9 -1.2,-0.9l0,-0.3l3.4,0l0,0.3c-0.5,0 -1,0 -1,0.9l0,6.2c0,0.8 0.5,0.9 1,0.9l0,0.3l-3.6,0l0,-0.3l0.2,0zm5.6,-7c0.2,-0.2 0.5,-0.4 0.5,-0.7s-0.4,-0.3 -0.8,-0.3l0,-0.3l3,0l0,0.3c-0.8,0 -1.2,0.1 -2.4,1.3l-2.2,2.2c1.4,1.3 2.6,2.8 4,4c0.3,0.3 0.7,0.4 1.1,0.4l0,0.3l-2.2,0c-1.3,-1.5 -2.7,-2.8 -4.1,-4.3l3.1,-2.9z" class="st1"/>
  <path id="svg_16" fill="#716F73" d="m120.53769,3.8c2,0.2 3.6,1.9 3.4,4c-0.2,2 -1.9,3.6 -4,3.4c-1.9,-0.1 -3.4,-1.7 -3.4,-3.7c0,-2 1.8,-3.7 4,-3.7c-0.1,0 -0.1,0 0,0m0.1,7.2c1.6,0 2.6,-1.3 2.6,-3.2c0,-1.6 -1,-3.7 -2.8,-3.7c-1.6,0 -2.6,1.3 -2.6,3.2c-0.1,1.6 0.9,3.7 2.8,3.7" class="st1"/>
  <path id="svg_17" fill="#716F73" d="m132.43769,11.2l-0.2,0l-5.8,-5.8l0,3.8c0,1.4 0.1,1.7 1.3,1.7l0,0.3l-3,0l0,-0.4c0.7,0 1.2,0 1.2,-1.3l0,-4.1c0,-0.9 -0.4,-1.2 -1.3,-1.2l0,-0.2l2,0c0.4,0.6 1.5,1.6 2.7,2.8c0.9,1 2,2 2.7,2.7l0,-4c0,-1 -0.2,-1.2 -1.4,-1.2l0,-0.3l2.8,0l0,0.3c-0.7,0 -1,0.1 -1,1l0,5.9l0,0z" class="st1"/>
  <path id="svg_18" fill="#716F73" d="m140.93769,5.8l-0.2,0c-0.3,-1.2 -1.4,-1.7 -2.6,-1.7c-1.7,0 -3.1,1.4 -3.1,3.1c0,0 0,0.1 0,0.1c-0.1,1.8 1.3,3.4 3.1,3.5c0,0 0.1,0 0.1,0c0.5,0 1,-0.1 1.5,-0.4l0,-1.5c0,-0.8 -0.4,-0.8 -1,-0.8l0,-0.1l2.9,0l0,0.3c-0.4,0 -0.8,0 -0.8,0.8l0,1.3l0.1,0.2l0,0.2c-0.9,0.3 -1.9,0.6 -2.9,0.6c-2,0.3 -3.9,-1.2 -4.2,-3.2c-0.3,-2 1.2,-3.9 3.2,-4.2c0.3,0 0.6,0 0.9,0c1,0 1.9,0.2 2.9,0.5l0.1,1.3z" class="st1"/>
  <path id="svg_19" fill="#716F73" d="m40.83769,14.2l3.3,0c1.3,0 3.3,0.5 3.3,2.4c-0.1,1.5 -1.4,2.5 -2.9,2.5l-0.7,0l0,-0.4l0.5,0c1,-0.1 1.7,-0.9 1.7,-1.9c0,0 0,-0.1 0,-0.1c0.1,-1.1 -0.7,-2.1 -1.8,-2.2c-0.1,0 -0.2,0 -0.4,0c-0.2,0 -0.4,0 -0.6,0.1l0,6.9c0,0.8 0.5,0.9 1.2,0.9l0,0.3l-3.8,0l0,-0.3c0.7,0 1.2,0 1.2,-0.9l0,-5.8c0,-1 -0.2,-1.2 -1.2,-1.2l0.2,-0.3l0,0z" class="st1"/>
  <path id="svg_20" fill="#716F73" d="m52.13769,15.4c2,0.2 3.6,1.9 3.4,4c-0.2,2 -1.9,3.6 -4,3.4c-1.9,-0.1 -3.4,-1.7 -3.4,-3.7c0,-2 1.8,-3.7 4,-3.7c-0.1,0 -0.1,0 0,0m0.1,7.2c1.6,0 2.6,-1.3 2.6,-3.2c0,-1.6 -1,-3.7 -2.8,-3.7c-1.6,0 -2.6,1.3 -2.6,3.2c0,1.6 0.9,3.7 2.8,3.7" class="st1"/>
  <path id="svg_21" fill="#716F73" d="m62.43769,22.8l-5.7,0l0,-0.3c0.5,0 1,-0.1 1,-0.7l0,-5.2c0,-0.8 -0.4,-0.8 -1,-0.8l0,-0.3l3.1,0l0,0.3c-0.6,0 -1,0 -1,0.8l0,4.7c0,0.8 0.2,1 1.7,1c1.3,0 1.7,-0.3 2,-1.3l0.2,0.1l-0.3,1.7z" class="st1"/>
  <path id="svg_22" fill="#716F73" d="m66.73769,21.8c0,0.8 0.4,0.8 1,0.8l0,0.3l-3.1,0l0,-0.3c0.6,0 1,0 1,-0.8l0,-2.5l-2.3,-2.9c-0.3,-0.4 -0.4,-0.4 -1,-0.4l0,-0.3l2.8,0l0,0.3c-0.2,0 -0.6,0 -0.6,0.2c0.1,0.2 0.2,0.4 0.4,0.6l1.6,2l1.4,-1.8c0.2,-0.2 0.4,-0.5 0.4,-0.8c0,-0.3 -0.2,-0.3 -0.8,-0.3l0,-0.3l2.2,0l0,0.3c-0.4,0 -0.7,0.3 -0.9,0.6l-2.1,2.6l0,2.7z" class="st1"/>
  <path id="svg_23" fill="#716F73" d="m77.43769,16.9l-0.3,0c0,-0.5 0,-0.9 -0.9,-0.9l-1.6,0l0,5.7c0,0.8 0.4,0.8 1,0.8l0,0.3l-3.1,0l0,-0.3c0.6,0 1,0 1,-0.8l0,-5.7l-1.4,0c-1,0 -1,0.2 -1.2,0.9l-0.3,0l0.2,-1.7l0.2,0c0.1,0.2 0.4,0.3 0.7,0.3l5,0c0.4,0 0.7,-0.1 0.8,-0.3l0.2,0l-0.3,1.7z" class="st1"/>
  <path id="svg_24" fill="#716F73" d="m80.53769,18.8l1.5,0c0.4,0.1 0.8,-0.2 0.9,-0.7c0,-0.1 0,-0.1 0,-0.2l0.2,0c0,0.2 -0.1,0.8 -0.1,1.1s0.1,0.8 0.1,1.1l-0.2,0c0,-1 -0.4,-1 -1.2,-1l-1.2,0l0,1.7c0,1.1 0.1,1.4 1.1,1.4l0.7,0c1,-0.1 1.6,-0.2 2,-1.3l0.3,0.1c-0.2,0.5 -0.3,1 -0.4,1.6l-5.8,0l0,-0.3c1,0 1.1,-0.2 1.1,-1.1l0,-4.5c0,-0.8 -0.2,-0.9 -1.1,-0.9l0,-0.3l5.4,0l0,1.5l-0.2,0.1c-0.2,-1 -0.7,-1.3 -1.7,-1.3l-1.3,0l-0.1,3z" class="st1"/>
  <path id="svg_25" fill="#716F73" d="m92.23769,17.5l-0.3,0c-0.2,-1.1 -1.2,-1.8 -2.3,-1.7c0,0 0,0 0,0c-1.7,0 -3,1.3 -3.1,2.9c0,0.1 0,0.2 0,0.3c-0.1,1.9 1.4,3.4 3.3,3.5c1.1,0 2.1,-0.7 2.2,-1.8l0.2,0.1l-0.2,1.5c-0.8,0.3 -1.6,0.5 -2.4,0.5c-2.6,0 -4.2,-1.6 -4.2,-3.8c0,-2.1 2,-3.6 4.2,-3.6c0.9,0.1 1.8,0.2 2.6,0.5l0,1.6z" class="st1"/>
  <path id="svg_26" fill="#716F73" d="m99.63769,18.8l0,-2.2c0,-0.8 -0.4,-0.8 -1,-0.8l0,-0.3l3.1,0l0,0.3c-0.6,0 -1,0 -1,0.8l0,5.1c0,0.8 0.4,0.8 1,0.8l0,0.3l-3.1,0l0,-0.3c0.6,0 1,0 1,-0.8l0,-2.5l-4.4,0l0,2.5c0,0.8 0.4,0.8 1,0.8l0,0.3l-3.1,0l0,-0.3c0.6,0 1,0 1,-0.8l0,-5.1c0,-0.8 -0.4,-0.8 -1,-0.8l0,-0.3l3.1,0l0,0.3c-0.6,0 -1,0 -1,0.8l0,2.2l4.4,0z" class="st1"/>
  <path id="svg_27" fill="#716F73" d="m110.33769,22.8l-0.2,0l-5.8,-5.8l0,3.8c0,1.4 0.2,1.7 1.3,1.7l0,0.3l-3,0l0,-0.3c0.7,0 1.2,0 1.2,-1.3l0,-4.1c0,-0.9 -0.4,-1.2 -1.3,-1.2l0,-0.3l2,0c0.4,0.6 1.5,1.6 2.7,2.8c0.9,1 1.9,2 2.7,2.7l0,-4c0,-1 -0.2,-1.2 -1.3,-1.2l0,-0.3l2.8,0l0,0.3c-0.7,0 -1,0.1 -1,1l-0.1,5.9l0,0z" class="st1"/>
  <path id="svg_28" fill="#716F73" d="m113.23769,16.6c0,-0.8 -0.4,-0.8 -1,-0.8l0,-0.3l3.1,0l0,0.3c-0.6,0 -1,0 -1,0.8l0,5.1c0,0.8 0.4,0.8 1,0.8l0,0.3l-3.1,0l0,-0.3c0.6,0 1,0 1,-0.8l0,-5.1z" class="st1"/>
  <path id="svg_29" fill="#716F73" d="m122.83769,17.5l-0.3,0c-0.2,-1.1 -1.2,-1.8 -2.3,-1.7c0,0 0,0 0,0c-1.7,0 -3,1.3 -3.1,2.9c0,0.1 0,0.2 0,0.3c-0.1,1.9 1.4,3.4 3.3,3.5c1.1,0.1 2.1,-0.7 2.2,-1.8l0.2,0.1l-0.2,1.5c-0.8,0.3 -1.6,0.5 -2.4,0.5c-2.6,0 -4.2,-1.6 -4.2,-3.8c0,-2.1 2,-3.6 4.2,-3.6c0.9,0.1 1.8,0.2 2.6,0.5l0,1.6z" class="st1"/>
  <path id="svg_30" fill="#716F73" d="m135.03769,14.5c-1.1,0 -1.1,0.4 -1.1,2l0,3.5c0,1.7 -1.1,2.9 -3.4,2.9c-2.2,0 -3.5,-1 -3.5,-3.1l0,-4.5c0,-0.8 -0.5,-0.9 -1.2,-0.9l0,-0.3l3.7,0l0,0.3c-0.7,0 -1.2,0 -1.2,0.9l0,4.1c0,1.4 0.5,2.8 2.6,2.8c1.2,0.1 2.3,-0.7 2.4,-1.9c0,-0.2 0,-0.3 0,-0.5l0,-3.6c0,-2 -0.1,-1.9 -1.3,-2l0,-0.2l3,0l0,0.5l0,0z" class="st1"/>
  <path id="svg_31" fill="#716F73" d="m143.53769,22.8l-0.2,0l-5.8,-5.8l0,3.8c0,1.4 0.1,1.7 1.3,1.7l0,0.3l-3,0l0,-0.3c0.7,0 1.2,0 1.2,-1.3l0,-4.1c0,-0.9 -0.4,-1.2 -1.4,-1.2l0,-0.3l1.9,0c0.4,0.6 1.5,1.6 2.7,2.8c0.9,1 1.9,2 2.7,2.7l0,-4c0,-1 -0.2,-1.2 -1.4,-1.2l0,-0.3l2.8,0l0,0.3c-0.7,0 -1,0.1 -1,1l0,5.8l0.2,0.1z" class="st1"/>
  <path id="svg_32" fill="#716F73" d="m146.43769,16.6c0,-0.8 -0.4,-0.8 -1,-0.8l0,-0.3l3.1,0l0,0.3c-0.6,0 -1,0 -1,0.8l0,5.1c0,0.8 0.4,0.8 1,0.8l0,0.3l-3.1,0l0,-0.3c0.6,0 1,0 1,-0.8l0,-5.1z" class="st1"/>
  <path id="svg_33" fill="#716F73" d="m151.23769,18.7c-0.3,-0.7 -0.6,-1.3 -0.8,-2s-0.4,-0.8 -1.1,-0.8l0,-0.3l3,0l0,0.3l-0.4,0c-0.1,0 -0.3,0.1 -0.3,0.2c0,0.3 0.6,1.6 0.7,1.9l1.5,3.5l0.8,-2c0.3,-0.7 0.6,-1.3 0.8,-2c0.2,-0.4 0.3,-0.8 0.4,-1.2c0,-0.4 -0.4,-0.4 -0.8,-0.4l0,-0.3l2.3,0l0,0.3c-0.3,0 -0.6,0.1 -0.8,0.4c-0.1,0.1 -0.8,1.9 -0.8,2l-2,4.7l-0.4,0l-2.1,-4.3z" class="st1"/>
  <path id="svg_34" fill="#716F73" d="m159.93769,18.8l1.4,0c0.4,0.1 0.8,-0.2 0.9,-0.7c0,-0.1 0,-0.1 0,-0.2l0.2,0c0,0.2 -0.1,0.8 -0.1,1.1s0.1,0.8 0.1,1.1l-0.2,0c0,-1 -0.4,-1 -1.2,-1l-1.2,0l0,1.7c0,1.1 0.1,1.4 1.1,1.4l0.7,0c1.1,-0.1 1.6,-0.2 2,-1.3l0.3,0.1c-0.2,0.5 -0.3,1 -0.4,1.6l-5.8,0l0,-0.3c1,0 1.1,-0.2 1.1,-1.1l0,-4.5c0,-0.8 -0.1,-0.9 -1.1,-0.9l0,-0.3l5.4,0l0,1.5l-0.2,0.1c-0.1,-1 -0.7,-1.3 -1.8,-1.3l-1.3,0l0.1,3l0,0z" class="st1"/>
  <path id="svg_35" fill="#716F73" d="m172.03769,21.1l0.2,0c0.2,0.8 0.9,1.5 1.7,1.5c0.8,0.1 1.4,-0.5 1.5,-1.3c0,0 0,-0.1 0,-0.1c0,-1.9 -3.2,-1.3 -3.2,-3.8c0,-1.1 1,-2 2.1,-2c0.1,0 0.2,0 0.2,0c0.5,0 0.9,0.1 1.4,0.2l0.1,1.3l-0.2,0c-0.1,-0.7 -0.7,-1.2 -1.4,-1.2c0,0 -0.1,0 -0.1,0c-0.7,-0.1 -1.3,0.4 -1.3,1.1c0,0.1 0,0.1 0,0.2c0,1.9 3.4,1.3 3.4,3.8c0,1.3 -1.3,2.1 -2.6,2.1c-0.6,0 -1.1,-0.1 -1.6,-0.4l-0.2,-1.4z" class="st1"/>
  <path id="svg_36" fill="#716F73" d="m178.23769,16.6c0,-0.8 -0.4,-0.8 -1,-0.8l0,-0.3l3.1,0l0,0.3c-0.6,0 -1,0 -1,0.8l0,5.1c0,0.8 0.5,0.8 1,0.8l0,0.3l-3.1,0l0,-0.3c0.6,0 1,0 1,-0.8l0,-5.1z" class="st1"/>
  <path id="svg_37" fill="#716F73" d="m188.03769,16.9l-0.3,0c0,-0.5 0,-0.9 -0.9,-0.9l-1.7,0l0,5.7c0,0.8 0.4,0.8 1,0.8l0,0.3l-3.1,0l0,-0.3c0.6,0 1,0 1,-0.8l0,-5.7l-1.5,0c-1,0 -1,0.2 -1.2,0.9l-0.2,0l0.1,-1.7l0.2,0c0.1,0.2 0.4,0.3 0.7,0.3l5,0c0.4,0 0.7,-0.1 0.8,-0.3l0.2,0l-0.1,1.7z" class="st1"/>
  <path id="svg_38" fill="#716F73" d="m192.83769,21.8c0,0.8 0.5,0.8 1,0.8l0,0.3l-3.1,0l0,-0.3c0.6,0 1,0 1,-0.8l0,-2.5l-2.3,-2.9c-0.3,-0.4 -0.4,-0.4 -1,-0.4l0,-0.3l2.9,0l0,0.3c-0.1,0 -0.6,0 -0.6,0.2c0.1,0.2 0.2,0.4 0.4,0.6l1.6,2l1.3,-1.8c0.2,-0.2 0.4,-0.5 0.4,-0.8c0,-0.3 -0.2,-0.3 -0.8,-0.3l0,-0.3l2.2,0l0,0.3c-0.4,0 -0.7,0.3 -0.9,0.6l-2.1,2.6l0,2.7z" class="st1"/>
  <path id="svg_39" fill="#716F73" d="m166.73769,19.3l0,2.4c0,0.8 0.5,0.8 1,0.8l0,0.3l-3.1,0l0,-0.3c0.5,0 1,-0.1 1,-0.7l0,-5.2c0,-0.8 -0.4,-0.8 -1,-0.8l0,-0.3l3.1,0c2.1,0 2.6,1.1 2.6,1.8c0,0.9 -0.7,1.6 -1.6,1.7c0.5,0.9 1.1,1.8 1.7,2.6c0.2,0.4 0.7,0.7 1.1,0.7l0,0.3l-1.7,0c-0.8,-1.1 -2.2,-3.4 -2.2,-3.4l-0.9,0.1zm0.7,-3.4c-0.2,0 -0.5,0 -0.7,0.1l0,3c0.1,0 0.4,0.1 0.6,0.1c1.4,0 1.9,-0.8 1.9,-1.6c0,-0.9 -0.5,-1.6 -1.8,-1.6" class="st1"/>
    </g>
 </g>
</svg>